<svg width="14" height="18" viewBox="0 0 14 18" fill="none" xmlns="http://www.w3.org/2000/svg">
<path d="M9.92085 4.54185C9.92085 4.70973 9.90977 4.87762 9.88944 5.04359C9.89868 4.97682 9.90792 4.90814 9.91531 4.84137C9.87097 5.17332 9.78598 5.49573 9.6622 5.80479C9.68622 5.74374 9.71208 5.68269 9.7361 5.62164C9.61232 5.92307 9.45344 6.20541 9.25945 6.46487C9.29825 6.41336 9.33705 6.36185 9.37584 6.31034C9.1837 6.56598 8.96016 6.79682 8.7126 6.99522C8.76248 6.95516 8.81236 6.9151 8.86224 6.87504C8.61098 7.07344 8.33756 7.23942 8.04565 7.36724C8.10477 7.34244 8.16389 7.31573 8.22301 7.29093C7.92372 7.41875 7.6115 7.5065 7.29003 7.55229C7.35469 7.54275 7.4212 7.53321 7.48587 7.52558C7.16256 7.56946 6.8374 7.56946 6.51409 7.52558C6.57875 7.53512 6.64526 7.54466 6.70992 7.55229C6.38846 7.5065 6.07623 7.41875 5.77694 7.29093C5.83606 7.31573 5.89518 7.34244 5.9543 7.36724C5.6624 7.23942 5.38897 7.07535 5.13771 6.87504C5.18759 6.9151 5.23748 6.95516 5.28736 6.99522C5.0398 6.79682 4.81625 6.56598 4.62411 6.31034C4.66291 6.36185 4.70171 6.41336 4.7405 6.46487C4.54836 6.20541 4.38763 5.92307 4.26385 5.62164C4.28787 5.68269 4.31373 5.74374 4.33775 5.80479C4.21397 5.49573 4.12899 5.17332 4.08465 4.84137C4.09388 4.90814 4.10312 4.97682 4.11051 5.04359C4.06802 4.70973 4.06802 4.37397 4.11051 4.04011C4.10127 4.10688 4.09204 4.17556 4.08465 4.24234C4.12899 3.91039 4.21397 3.58798 4.33775 3.27892C4.31373 3.33997 4.28787 3.40102 4.26385 3.46206C4.38763 3.16064 4.54652 2.87829 4.7405 2.61884C4.70171 2.67035 4.66291 2.72185 4.62411 2.77336C4.81625 2.51773 5.0398 2.28689 5.28736 2.08848C5.23748 2.12854 5.18759 2.16861 5.13771 2.20867C5.38897 2.01026 5.6624 1.84429 5.9543 1.71647C5.89518 1.74127 5.83606 1.76798 5.77694 1.79278C6.07623 1.66496 6.38846 1.5772 6.70992 1.53142C6.64526 1.54095 6.57875 1.55049 6.51409 1.55812C6.8374 1.51425 7.16256 1.51425 7.48587 1.55812C7.4212 1.54859 7.35469 1.53905 7.29003 1.53142C7.6115 1.5772 7.92372 1.66496 8.22301 1.79278C8.16389 1.76798 8.10477 1.74127 8.04565 1.71647C8.33756 1.84429 8.61098 2.00835 8.86224 2.20867C8.81236 2.16861 8.76248 2.12854 8.7126 2.08848C8.96016 2.28689 9.1837 2.51773 9.37584 2.77336C9.33705 2.72185 9.29825 2.67035 9.25945 2.61884C9.45159 2.87829 9.61232 3.16064 9.7361 3.46206C9.71208 3.40102 9.68622 3.33997 9.6622 3.27892C9.78598 3.58798 9.87097 3.91039 9.91531 4.24234C9.90607 4.17556 9.89683 4.10688 9.88944 4.04011C9.90977 4.20609 9.919 4.37397 9.92085 4.54185C9.9227 4.94057 10.2589 5.32403 10.6598 5.30495C11.0589 5.28588 11.4007 4.96919 11.3988 4.54185C11.3951 3.62804 11.1291 2.69324 10.6081 1.94921C10.4677 1.7489 10.3181 1.5524 10.1518 1.37498C9.98366 1.19565 9.79892 1.04112 9.60678 0.890411C9.2576 0.615694 8.86778 0.413472 8.45395 0.257036C6.78567 -0.374431 4.77376 0.188357 3.64494 1.60773C3.48976 1.80232 3.34196 2.00454 3.21633 2.22202C3.0907 2.4376 2.99278 2.66653 2.90226 2.89928C2.73229 3.33043 2.64545 3.78829 2.61035 4.25187C2.542 5.15997 2.77108 6.10812 3.22926 6.88648C3.67081 7.63814 4.33775 8.28296 5.11739 8.64734C5.34648 8.75418 5.58111 8.85338 5.82498 8.92396C6.067 8.99264 6.31271 9.0308 6.56212 9.06132C7.0166 9.11665 7.48032 9.07849 7.92926 8.98501C9.63449 8.62636 11.0626 7.10969 11.3268 5.32976C11.3656 5.0703 11.3951 4.81085 11.3951 4.54758C11.397 4.14886 11.0534 3.7654 10.6562 3.78447C10.2571 3.79783 9.92085 4.11452 9.92085 4.54185ZM12.3725 16.471C12.0104 16.471 11.6482 16.471 11.2861 16.471C10.4234 16.471 9.56244 16.471 8.69966 16.471C7.66138 16.471 6.62309 16.471 5.58296 16.471C4.68693 16.471 3.7909 16.471 2.89302 16.471C2.47364 16.471 2.05426 16.4749 1.63488 16.471C1.58869 16.471 1.54251 16.4672 1.49817 16.4615C1.56283 16.471 1.62934 16.4806 1.694 16.4882C1.6201 16.4768 1.5499 16.4558 1.48154 16.4272C1.54066 16.452 1.59978 16.4787 1.6589 16.5035C1.585 16.471 1.51664 16.4291 1.45198 16.3776C1.50186 16.4176 1.55174 16.4577 1.60163 16.4977C1.5462 16.4501 1.49447 16.3985 1.45013 16.3413C1.48893 16.3928 1.52773 16.4443 1.56652 16.4958C1.51664 16.4291 1.47784 16.3585 1.44459 16.2822C1.46861 16.3432 1.49447 16.4043 1.51849 16.4653C1.49078 16.3947 1.4723 16.3203 1.45937 16.2459C1.46861 16.3127 1.47784 16.3814 1.48523 16.4481C1.45567 16.2173 1.476 15.9731 1.476 15.7404C1.476 15.4676 1.476 15.1967 1.476 14.9239C1.476 14.7197 1.48708 14.5175 1.51295 14.3153C1.50371 14.3821 1.49447 14.4507 1.48708 14.5175C1.53881 14.1264 1.63857 13.743 1.78822 13.3786C1.7642 13.4396 1.73834 13.5007 1.71432 13.5617C1.85843 13.2145 2.04317 12.8883 2.26672 12.5888C2.22792 12.6403 2.18913 12.6918 2.15033 12.7433C2.37387 12.4476 2.63067 12.1805 2.91888 11.9497C2.869 11.9897 2.81912 12.0298 2.76924 12.0699C3.05929 11.839 3.37521 11.6482 3.71145 11.4994C3.65233 11.5242 3.59321 11.5509 3.53409 11.5757C3.88696 11.4231 4.25646 11.3182 4.63704 11.2648C4.57238 11.2743 4.50587 11.2839 4.44121 11.2915C4.71464 11.2552 4.98622 11.2533 5.26149 11.2533C5.59958 11.2533 5.93767 11.2533 6.27576 11.2533C7.06464 11.2533 7.85352 11.2533 8.64239 11.2533C8.94723 11.2533 9.25021 11.2514 9.55505 11.2915C9.49039 11.2819 9.42388 11.2724 9.35922 11.2648C9.73795 11.3182 10.1093 11.4212 10.4622 11.5757C10.403 11.5509 10.3439 11.5242 10.2848 11.4994C10.621 11.6482 10.937 11.839 11.227 12.0699C11.1771 12.0298 11.1273 11.9897 11.0774 11.9497C11.3637 12.1805 11.6224 12.4457 11.8459 12.7433C11.8071 12.6918 11.7683 12.6403 11.7295 12.5888C11.9531 12.8883 12.1378 13.2145 12.2819 13.5617C12.2579 13.5007 12.2321 13.4396 12.208 13.3786C12.3558 13.743 12.4574 14.1245 12.5092 14.5175C12.4999 14.4507 12.4907 14.3821 12.4833 14.3153C12.5184 14.6033 12.5203 14.8895 12.5203 15.1795C12.5203 15.4943 12.5203 15.8091 12.5203 16.1238C12.5203 16.2326 12.524 16.3413 12.511 16.4481C12.5203 16.3814 12.5295 16.3127 12.5369 16.2459C12.5258 16.3222 12.5055 16.3947 12.4778 16.4653C12.5018 16.4043 12.5277 16.3432 12.5517 16.2822C12.5203 16.3585 12.4796 16.4291 12.4297 16.4958C12.4685 16.4443 12.5073 16.3928 12.5461 16.3413C12.4999 16.3985 12.4501 16.452 12.3946 16.4977C12.4445 16.4577 12.4944 16.4176 12.5443 16.3776C12.4796 16.4291 12.4113 16.4691 12.3374 16.5035C12.3965 16.4787 12.4556 16.452 12.5147 16.4272C12.4464 16.4558 12.3743 16.4749 12.3023 16.4882C12.3669 16.4787 12.4334 16.4691 12.4981 16.4615C12.4574 16.4672 12.415 16.4691 12.3725 16.471C12.1822 16.4729 11.9863 16.555 11.8496 16.6943C11.7221 16.8259 11.6242 17.0434 11.6335 17.2341C11.6519 17.6424 11.9586 18.003 12.3725 17.9972C13.0911 17.9858 13.723 17.5012 13.9336 16.7896C14.0167 16.5073 13.9983 16.204 13.9983 15.914C13.9983 15.2501 14.0186 14.5919 13.9077 13.9337C13.7451 12.9703 13.2759 12.0641 12.633 11.3525C11.99 10.6409 11.1254 10.1182 10.2109 9.88547C9.68622 9.75193 9.15784 9.73095 8.62207 9.73095C8.07152 9.73095 7.52282 9.73095 6.97226 9.73095C6.4291 9.73095 5.88779 9.73095 5.34463 9.73095C4.79593 9.73095 4.25092 9.75765 3.717 9.90455C2.80988 10.1526 1.95634 10.681 1.32635 11.3983C0.690815 12.1214 0.230791 13.0295 0.0811448 13.9986C-0.0186194 14.6491 0.0017029 15.3016 0.0017029 15.9579C0.0017029 16.2593 -0.0149244 16.5741 0.0903822 16.8621C0.227096 17.2322 0.445099 17.5241 0.764714 17.7435C1.01412 17.9133 1.33004 17.9953 1.62564 17.9992C1.76975 18.0011 1.91385 17.9992 2.05795 17.9992C2.42745 17.9992 2.7951 17.9992 3.1646 17.9992C3.68928 17.9992 4.21212 17.9992 4.73681 17.9992C5.34648 17.9992 5.95615 17.9992 6.56582 17.9992C7.19212 17.9992 7.81657 17.9992 8.44286 17.9992C9.01558 17.9992 9.58646 17.9992 10.1592 17.9992C10.6081 17.9992 11.0571 17.9992 11.5041 17.9992C11.7609 17.9992 12.0177 17.9992 12.2745 17.9992C12.3078 17.9992 12.3411 17.9992 12.3743 17.9992C12.7604 17.9992 13.1318 17.6481 13.1133 17.2361C13.0948 16.8202 12.7881 16.471 12.3725 16.471Z" fill="#202020" fill-opacity="0.5"/>
</svg>
